<?xml version="1.0" encoding="UTF-8" standalone="no"?>
<!-- Created with Inkscape (http://www.inkscape.org/) -->

<svg
   width="83.034439mm"
   height="81.70359mm"
   viewBox="0 0 83.034438 81.70359"
   version="1.1"
   id="svg3348"
   inkscape:version="1.2.2 (732a01da63, 2022-12-09)"
   sodipodi:docname="logo.svg"
   xmlns:inkscape="http://www.inkscape.org/namespaces/inkscape"
   xmlns:sodipodi="http://sodipodi.sourceforge.net/DTD/sodipodi-0.dtd"
   xmlns="http://www.w3.org/2000/svg"
   xmlns:svg="http://www.w3.org/2000/svg">
  <sodipodi:namedview
     id="namedview3350"
     pagecolor="#ffffff"
     bordercolor="#000000"
     borderopacity="0.25"
     inkscape:showpageshadow="2"
     inkscape:pageopacity="0.0"
     inkscape:pagecheckerboard="0"
     inkscape:deskcolor="#d1d1d1"
     inkscape:document-units="mm"
     showgrid="false"
     inkscape:zoom="0.71446409"
     inkscape:cx="310.72241"
     inkscape:cy="86.77833"
     inkscape:window-width="1920"
     inkscape:window-height="974"
     inkscape:window-x="-11"
     inkscape:window-y="-11"
     inkscape:window-maximized="1"
     inkscape:current-layer="layer1" />
  <defs
     id="defs3345" />
  <g
     inkscape:label="Layer 1"
     inkscape:groupmode="layer"
     id="layer1"
     transform="translate(-22.771552,-125.50395)">
    <path
       style="fill:#818cf8;fill-opacity:1;stroke:none;stroke-width:0.264583"
       d="m 25.861847,137.16403 0.254158,9.26041 0.0091,3.64493 5.02837,-0.20476 12.435417,-0.26564 43.127084,0.26458 11.112501,0.26459 4.787483,0.1884 -0.025,-3.62831 v -9.52499 H 79.307681 l -5.55625,-2.6e-4 -2.715684,0.004 -0.194733,-11.64573 -10.635157,0.0254 -3.492535,-0.0427 0.16993,11.59974 c 0,0 -2.441114,0.0592 -3.240156,0.0592 H 47.822268 25.861851 m 19.314583,53.44665 13.229167,-4.23334 c -0.116946,-2.71753 -1.056217,-5.33214 -1.753129,-7.9375 -1.45415,-5.43824 -3.210454,-10.80188 -4.989777,-16.13958 -0.677334,-2.03226 -1.36869,-4.05739 -2.059517,-6.08542 -0.303477,-0.89111 -0.538956,-2.10608 -1.178719,-2.82522 -0.815181,-0.91651 -2.047081,-0.24976 -2.983441,0.095 -2.312988,0.85222 -4.614598,1.79176 -6.879167,2.76489 -0.796396,0.34237 -2.096294,0.7075 -2.425436,1.60946 -0.322527,0.88292 0.252148,2.02592 0.529432,2.8538 0.744008,2.21985 1.601523,4.40134 2.364846,6.61458 2.626783,7.61947 4.090458,15.51808 6.145741,23.28334 m 34.052405,-37.56238 c -0.762,0.55748 -0.928687,2.05396 -1.166283,2.90195 -0.711465,2.54053 -1.255713,5.12577 -1.933575,7.67292 -1.698625,6.38439 -3.537744,12.71349 -5.405703,19.05 -0.974989,3.30676 -1.837002,7.7335 -3.885406,10.55449 -0.854869,1.17766 -2.088092,1.08664 -3.405187,1.08717 h -7.937501 c -7.941733,0 -15.891139,0.0926 -23.8125,-0.25426 -2.016257,-0.0881 -4.074848,-0.254 -6.085417,-0.27385 -0.692547,-0.007 -1.651317,-0.12197 -2.184849,0.42307 -0.73459,0.75063 -0.460984,2.32834 -0.460984,3.28004 0,2.78845 -0.42971,5.96847 0.03918,8.71564 0.272388,1.59597 3.247258,0.80936 4.458732,0.80936 4.596871,0 9.176014,-0.26458 13.758333,-0.26458 15.969721,0 31.912984,-0.26458 47.889584,-0.26458 h 11.906257 c 1.1086,0 3.45493,0.44079 4.30159,-0.42413 0.64664,-0.66067 0.46064,-1.91241 0.46091,-2.75087 v -6.87917 c 0,-0.80328 0.2741,-2.31458 -0.61331,-2.75087 -1.26206,-0.62019 -3.56023,0.10451 -4.94294,0.10504 H 87.509768 c -1.410229,0 -2.823368,0.0254 -4.233333,-0.001 -0.551127,-0.0103 -1.272381,0.0265 -1.680898,-0.4228 -0.624417,-0.68659 0.06747,-1.7997 0.357981,-2.48629 0.921544,-2.17805 1.70524,-4.39446 2.518834,-6.61458 2.269066,-6.19125 4.298685,-12.49204 6.258718,-18.78542 0.602721,-1.9349 1.252273,-3.86318 1.774826,-5.82083 0.199495,-0.74666 0.560121,-1.58115 0.496093,-2.3667 -0.09948,-1.22767 -1.616339,-1.44145 -2.581804,-1.719 -2.721504,-0.78237 -5.46391,-1.5113 -8.202083,-2.23361 -0.82894,-0.21881 -2.191015,-0.87101 -2.989263,-0.28681"
       id="path318-1"
       sodipodi:nodetypes="cccccccccccccccccsccccccccccccccccccccscccssssssccsccscccccccscc" />
  </g>
</svg>
