<?xml version="1.0" encoding="UTF-8" standalone="no"?>
<!-- Created with Inkscape (http://www.inkscape.org/) -->

<svg
   width="267.97305mm"
   height="53.50494mm"
   viewBox="0 0 267.97305 53.50494"
   version="1.1"
   id="svg3348"
   inkscape:version="1.2.2 (732a01da63, 2022-12-09)"
   sodipodi:docname="logo_titulo.svg"
   xmlns:inkscape="http://www.inkscape.org/namespaces/inkscape"
   xmlns:sodipodi="http://sodipodi.sourceforge.net/DTD/sodipodi-0.dtd"
   xmlns="http://www.w3.org/2000/svg"
   xmlns:svg="http://www.w3.org/2000/svg">
  <sodipodi:namedview
     id="namedview3350"
     pagecolor="#ffffff"
     bordercolor="#000000"
     borderopacity="0.25"
     inkscape:showpageshadow="2"
     inkscape:pageopacity="0.0"
     inkscape:pagecheckerboard="0"
     inkscape:deskcolor="#d1d1d1"
     inkscape:document-units="mm"
     showgrid="false"
     inkscape:zoom="0.71446409"
     inkscape:cx="368.10808"
     inkscape:cy="54.586369"
     inkscape:window-width="1920"
     inkscape:window-height="974"
     inkscape:window-x="-11"
     inkscape:window-y="-11"
     inkscape:window-maximized="1"
     inkscape:current-layer="layer1" />
  <defs
     id="defs3345" />
  <g
     inkscape:label="Layer 1"
     inkscape:groupmode="layer"
     id="layer1"
     transform="translate(-7.629168,-134.13754)">
    <path
       d="m 142.05452,134.21112 c -5.25145,0.95541 -3.29698,8.62462 1.85208,7.44379 4.93448,-1.13189 2.9554,-8.31824 -1.85208,-7.44379 m 128.85208,0 c -5.51656,1.00171 -3.39196,8.64711 1.85209,7.44379 4.88685,-1.12104 2.95275,-8.31639 -1.85209,-7.44379 M 7.646197,142.02374 h 8.73125 l 3.70556,-0.0137 -10e-4,2.92413 v 6.35 25.13542 h 7.143749 v -34.39583 h 12.435417 l -10e-4,-4.23228 -0.03,-1.81942 -2.34991,-0.0335 -4.49792,-2.6e-4 H 15.055267 10.292761 l -2.663593,0.0337 0.01908,1.81942 -0.0013,4.23228 m 117.210412,34.39583 c 1.67561,0 3.35148,0.0114 5.02708,-2.6e-4 0.58447,-0.004 2.07612,-0.0188 2.07612,-0.0188 0,0 0.0405,-2.59473 0.0405,-3.42049 v -7.9375 c 0,-6.57966 1.3925,-16.5272 -6.87916,-18.80473 -1.17951,-0.32491 -2.48099,-0.52044 -3.70416,-0.50483 -1.55655,0.0196 -3.38058,0.28681 -4.7625,1.03108 -2.02221,1.08903 -2.93132,3.00249 -4.49792,4.52014 v -10.31796 c 0,-1.21073 0.0205,-4.87407 0.0205,-4.87407 l -6.89017,0.006 -0.005,0.47689 c 0,0 -0.004,1.79041 -0.004,2.53918 v 5.55625 19.84375 8.46667 c 0,0.8337 0.008,3.48005 0.008,3.48005 0,0 4.34436,0.007 5.54742,-0.0455 0.54875,-0.0243 1.56815,-0.0181 1.56815,-0.0181 0,0 0.0207,-4.37004 0.0207,-5.79773 v -8.99584 c 0,-2.05449 -0.16007,-4.14549 0.65591,-6.08541 1.79546,-4.26826 8.38861,-5.14906 10.85823,-1.05728 1.82907,3.0308 0.92128,7.96475 0.92128,11.37603 V 176.4204 M 41.248283,154.19573 c 1.50892,0.0648 2.9964,0.38365 4.49791,0.54213 0.56409,0.0595 1.23376,0.22992 1.7661,-0.0439 1.16019,-0.59716 1.79705,-2.05766 2.9964,-2.73844 1.81134,-1.0279 4.92602,-1.07103 6.61062,0.23442 1.338,1.03691 2.62228,3.3409 1.24275,4.8559 -1.24593,1.36843 -3.77825,1.26206 -5.47212,1.49543 -4.60401,0.63394 -10.93972,1.13294 -12.49151,6.5024 -0.23706,0.82047 -0.38285,1.79123 -0.38311,2.64583 -0.001,2.89666 1.02235,5.4692 3.34989,7.26837 4.54184,3.51075 12.93812,2.59 15.61015,-2.77045 0.31327,1.05965 -0.14208,2.95222 0.53657,3.8092 0.3646,0.46011 1.05596,0.41302 1.58036,0.42281 1.07712,0.0204 4.30213,0.53657 4.86728,-0.61198 0.75141,-1.52691 0.15954,-4.57756 0.15954,-6.26587 v -10.84791 c 0,-2.53048 0.15822,-5.07603 -1.00806,-7.40834 -3.048,-6.09494 -12.41372,-6.72359 -18.04194,-4.26614 -2.85247,1.2454 -5.53879,3.96902 -5.82083,7.17656 m 58.20833,11.90625 h -6.87917 c -1.09484,4.56671 -6.30475,6.52145 -10.05019,3.5642 -2.44264,-1.92855 -3.48536,-5.56207 -3.40943,-8.59128 0.0794,-3.16336 1.25889,-6.68788 3.93462,-8.55954 3.73751,-2.61461 8.53731,-0.0585 9.525,4.06162 h 6.87917 c -0.26194,-2.02803 -0.82259,-4.12829 -2.01956,-5.82057 -4.09866,-5.79411 -13.45804,-6.45054 -19.14711,-2.76569 -4.37541,2.83395 -6.34947,8.3058 -6.34947,13.34876 0,4.92892 1.82351,10.36399 6.08489,13.20139 5.18107,3.44963 13.60329,3.46366 18.17688,-1.10993 1.95606,-1.95633 2.90724,-4.64053 3.25437,-7.32896 M 196.2941,145.84127 c -3.68564,0.49001 -6.79714,1.57321 -9.36096,4.43071 -5.20964,5.80681 -4.9186,17.06933 0.4445,22.66315 3.00302,3.13319 7.85548,4.44606 12.09146,3.93938 2.33627,-0.27966 4.65402,-0.89006 6.61459,-2.24605 7.50358,-5.1898 8.27087,-17.99828 2.30187,-24.65572 -2.89719,-3.23083 -7.84754,-4.69557 -12.09146,-4.13147 m 29.10417,5.44406 h -0.26458 v -5.02708 h -6.87917 v 19.57917 c 0,3.04112 -0.47096,6.51324 0.0397,9.50939 0.29368,1.72878 3.69093,1.08267 4.98739,1.07368 0.58473,-0.004 1.43404,0.0958 1.84415,-0.42387 0.80433,-1.01494 0.27252,-3.88726 0.27252,-5.13212 v -9.26042 c 0,-1.73646 -0.18785,-3.5941 0.23812,-5.29166 0.50536,-2.00898 2.14578,-4.0005 4.2598,-4.40796 2.49237,-0.48022 5.11968,0.85698 5.87375,3.34962 0.49212,1.62719 0.21166,3.60813 0.21166,5.29167 v 9.78958 c 0,1.49463 -0.0609,3.00355 0.005,4.4966 0.0291,0.66595 0.10319,1.28958 0.82815,1.50468 1.34408,0.39926 3.32581,0.14076 4.72281,0.0791 0.54769,-0.0243 1.15359,-0.0505 1.42875,-0.60827 0.63765,-1.29726 0.15875,-3.77984 0.15875,-5.20753 v -10.05417 c 0,-1.68407 -0.28839,-3.68538 0.29898,-5.29167 1.46579,-3.99388 7.19931,-4.70852 9.49325,-1.05727 0.91281,1.45547 0.79111,3.11679 0.79111,4.76144 v 7.14375 10.31875 h 7.14375 v -16.13958 c 0,-3.16468 0.3122,-6.5585 -1.03188,-9.525 -2.33892,-5.15541 -9.42975,-6.35238 -14.04937,-3.61077 -1.66423,0.98795 -2.71463,2.52941 -3.70417,4.13993 -0.65881,-1.57374 -1.50283,-2.96968 -2.91042,-3.98489 -4.7281,-3.40757 -11.58875,-1.18983 -13.75833,3.98489 m -85.98959,-5.02708 v 30.1625 h 6.87917 v -30.1625 h -6.87917 m 12.17084,0 c 0.39952,2.69796 1.66952,5.37792 2.58762,7.9375 1.89971,5.28082 3.80736,10.56322 5.61446,15.875 0.70379,2.06745 1.78858,4.2074 2.20927,6.35 0.40217,2.05105 -1.54781,4.82415 -3.53219,5.2832 -1.03716,0.23971 -2.1537,-0.064 -3.175,-0.25612 -0.61647,1.17502 -0.90487,2.42676 -1.24618,3.70391 -0.13229,0.50482 -0.39688,1.17792 -0.0582,1.65973 0.54769,0.77972 2.06375,0.6858 2.89189,0.76464 3.38138,0.322 7.13317,-0.49159 9.38742,-3.22818 2.82046,-3.42027 3.75444,-8.3521 5.27579,-12.4251 3.17236,-8.48227 6.34207,-17.05557 9.1493,-25.66458 h -7.67292 l -6.87917,22.75417 h -0.26458 l -6.87917,-22.75417 h -7.40833 m 116.41667,0 v 20.10833 6.08542 c 0,0.97234 -0.1958,2.19604 0.0847,3.13584 0.42334,1.42664 3.7809,0.84058 4.94242,0.83265 0.52652,-0.003 1.24883,0.0799 1.69333,-0.27173 0.5715,-0.45429 0.42069,-1.46897 0.42334,-2.10926 v -5.29167 -22.48958 h -7.14375 m -70.90834,5.10672 c 7.66498,-1.06786 8.84767,9.23423 7.366,14.47245 -0.70379,2.49449 -2.52148,4.90167 -5.24933,5.24272 -1.67217,0.20875 -3.57452,0.15001 -5.02708,-0.78 -1.89707,-1.21708 -2.85221,-3.39592 -3.32582,-5.52106 -1.14035,-5.08899 0.045,-12.5513 6.23623,-13.41411 M 58.975133,162.13324 c 0,1.96083 0.32544,4.26244 -0.5424,6.08542 -1.54887,3.25305 -6.67596,4.62677 -9.76497,2.76939 -2.08518,-1.25386 -2.25611,-4.83156 -0.26432,-6.24787 2.70086,-1.92035 7.39431,-1.88013 10.57169,-2.60694 z"
       style="fill:#3c3c43;fill-opacity:1;stroke:none;stroke-width:0.264583"
       id="path565" />
  </g>
</svg>
